<svg width="35" height="24" viewBox="0 0 35 24" fill="none" xmlns="http://www.w3.org/2000/svg">
<path d="M31.977 7.83997C31.3882 7.83997 30.8235 8.07385 30.4072 8.49018C29.9909 8.90651 29.757 9.47117 29.757 10.0599V12.2799C29.757 12.5743 29.64 12.8566 29.4319 13.0648C29.2237 13.273 28.9414 13.3899 28.647 13.3899H6.44727C6.15288 13.3899 5.87055 13.273 5.66239 13.0648C5.45423 12.8566 5.33728 12.5743 5.33728 12.2799V10.0599C5.33728 9.47117 5.10339 8.90651 4.68707 8.49018C4.27074 8.07385 3.70608 7.83997 3.11731 7.83997C2.52854 7.83997 1.96388 8.07385 1.54755 8.49018C1.13123 8.90651 0.897339 9.47117 0.897339 10.0599V14.4999C0.897339 15.6774 1.36512 16.8067 2.19777 17.6394C3.03042 18.4721 4.15974 18.9398 5.33728 18.9398H29.757C30.9345 18.9398 32.0638 18.4721 32.8965 17.6394C33.7292 16.8067 34.1969 15.6774 34.1969 14.4999V10.0599C34.1969 9.47117 33.963 8.90651 33.5467 8.49018C33.1304 8.07385 32.5657 7.83997 31.977 7.83997Z" stroke="#F94144" stroke-width="1.5" stroke-linecap="round" stroke-linejoin="round"/>
<path d="M5.33728 18.9398V22.2698" stroke="#F94144" stroke-width="1.5" stroke-linecap="round" stroke-linejoin="round"/>
<path d="M29.7571 18.9398V22.2698" stroke="#F94144" stroke-width="1.5" stroke-linecap="round" stroke-linejoin="round"/>
<path d="M3.11731 7.83991C3.11731 6.07359 3.81898 4.37961 5.06795 3.13064C6.31693 1.88166 8.01091 1.17999 9.77723 1.17999H25.317C27.0834 1.17999 28.7773 1.88166 30.0263 3.13064C31.2753 4.37961 31.977 6.07359 31.977 7.83991" stroke="#F94144" stroke-width="1.5" stroke-linecap="round" stroke-linejoin="round"/>
<path d="M17.5471 13.3898V1.17999" stroke="#F94144" stroke-width="1.5" stroke-linecap="round" stroke-linejoin="round"/>
</svg>
