<svg width="35" height="30" viewBox="0 0 35 30" fill="none" xmlns="http://www.w3.org/2000/svg">
<path d="M22.6525 19.9103C22.6525 18.392 22.0493 16.9358 20.9757 15.8621C19.902 14.7885 18.4458 14.1853 16.9275 14.1853C15.4091 14.1853 13.9529 14.7885 12.8793 15.8621C11.8056 16.9358 11.2025 18.392 11.2025 19.9103C9.98776 19.9103 8.82281 20.3929 7.96389 21.2518C7.10497 22.1107 6.62244 23.2756 6.62244 24.4903C6.62244 25.705 7.10497 26.87 7.96389 27.7289C8.82281 28.5878 9.98776 29.0704 11.2025 29.0704C12.211 29.0468 13.1996 28.7852 14.0879 28.307C14.9647 27.8511 15.9384 27.6131 16.9267 27.6131C17.915 27.6131 18.8887 27.8511 19.7656 28.307C20.6544 28.7851 21.6435 29.0467 22.6525 29.0704C23.8672 29.0704 25.0321 28.5878 25.8911 27.7289C26.75 26.87 27.2325 25.705 27.2325 24.4903C27.2325 23.2756 26.75 22.1107 25.8911 21.2518C25.0321 20.3929 23.8672 19.9103 22.6525 19.9103Z" fill="none" stroke="currentColor" stroke-width="1.5" stroke-linecap="round" stroke-linejoin="round"/>
<path d="M0.897461 14.1853C0.897461 14.6363 0.98631 15.083 1.15894 15.4998C1.33156 15.9165 1.58458 16.2952 1.90355 16.6142C2.22252 16.9331 2.6012 17.1862 3.01795 17.3588C3.43471 17.5314 3.88138 17.6203 4.33247 17.6203C4.78357 17.6203 5.23024 17.5314 5.647 17.3588C6.06375 17.1862 6.44243 16.9331 6.7614 16.6142C7.08037 16.2952 7.33339 15.9165 7.50601 15.4998C7.67864 15.083 7.76749 14.6363 7.76749 14.1853C7.76749 13.7342 7.67864 13.2875 7.50601 12.8707C7.33339 12.454 7.08037 12.0753 6.7614 11.7563C6.44243 11.4374 6.06375 11.1843 5.647 11.0117C5.23024 10.8391 4.78357 10.7502 4.33247 10.7502C3.88138 10.7502 3.43471 10.8391 3.01795 11.0117C2.6012 11.1843 2.22252 11.4374 1.90355 11.7563C1.58458 12.0753 1.33156 12.454 1.15894 12.8707C0.98631 13.2875 0.897461 13.7342 0.897461 14.1853V14.1853Z" fill="none" stroke="currentColor" stroke-width="1.5" stroke-linecap="round" stroke-linejoin="round"/>
<path d="M7.76746 5.02522C7.76746 5.93625 8.12936 6.80995 8.77355 7.45414C9.41774 8.09833 10.2914 8.46024 11.2025 8.46024C12.1135 8.46024 12.9872 8.09833 13.6314 7.45414C14.2756 6.80995 14.6375 5.93625 14.6375 5.02522C14.6375 4.1142 14.2756 3.24049 13.6314 2.5963C12.9872 1.95211 12.1135 1.59021 11.2025 1.59021C10.2914 1.59021 9.41774 1.95211 8.77355 2.5963C8.12936 3.24049 7.76746 4.1142 7.76746 5.02522V5.02522Z" fill="none" stroke="currentColor" stroke-width="1.5" stroke-linecap="round" stroke-linejoin="round"/>
<path d="M19.2175 5.02522C19.2175 5.93625 19.5794 6.80995 20.2236 7.45414C20.8678 8.09833 21.7415 8.46024 22.6525 8.46024C23.5636 8.46024 24.4373 8.09833 25.0815 7.45414C25.7257 6.80995 26.0876 5.93625 26.0876 5.02522C26.0876 4.1142 25.7257 3.24049 25.0815 2.5963C24.4373 1.95211 23.5636 1.59021 22.6525 1.59021C21.7415 1.59021 20.8678 1.95211 20.2236 2.5963C19.5794 3.24049 19.2175 4.1142 19.2175 5.02522V5.02522Z" fill="none" stroke="currentColor" stroke-width="1.5" stroke-linecap="round" stroke-linejoin="round"/>
<path d="M27.2325 14.1853C27.2325 15.0963 27.5944 15.97 28.2386 16.6142C28.8828 17.2584 29.7565 17.6203 30.6676 17.6203C31.5786 17.6203 32.4523 17.2584 33.0965 16.6142C33.7407 15.97 34.1026 15.0963 34.1026 14.1853C34.1026 13.2742 33.7407 12.4005 33.0965 11.7563C32.4523 11.1121 31.5786 10.7502 30.6676 10.7502C29.7565 10.7502 28.8828 11.1121 28.2386 11.7563C27.5944 12.4005 27.2325 13.2742 27.2325 14.1853V14.1853Z" fill="none" stroke="currentColor" stroke-width="1.5" stroke-linecap="round" stroke-linejoin="round"/>
</svg>
