<svg width="33" height="33" viewBox="0 0 33 33" fill="none" xmlns="http://www.w3.org/2000/svg">
<path d="M10.8993 21.6099C10.7172 21.7011 10.5149 21.7443 10.3115 21.7352C10.1081 21.7261 9.91038 21.6652 9.73718 21.5582C9.56397 21.4511 9.42102 21.3016 9.32193 21.1237C9.22283 20.9459 9.17088 20.7456 9.17102 20.542V12.4549C9.17088 12.2513 9.22283 12.051 9.32193 11.8732C9.42102 11.6953 9.56397 11.5457 9.73718 11.4387C9.91038 11.3317 10.1081 11.2707 10.3115 11.2617C10.5149 11.2526 10.7172 11.2957 10.8993 11.387L18.9808 15.427C19.1792 15.5263 19.346 15.6788 19.4626 15.8676C19.5792 16.0563 19.641 16.2738 19.641 16.4957C19.641 16.7175 19.5792 16.935 19.4626 17.1237C19.346 17.3125 19.1792 17.465 18.9808 17.5643L10.8993 21.6099Z" stroke="#F94144" stroke-width="1.5" stroke-linecap="round" stroke-linejoin="round"/>
<path d="M0.794922 16.5005C0.794922 20.6658 2.44956 24.6605 5.39485 27.6057C8.34013 30.551 12.3348 32.2057 16.5 32.2057C20.6653 32.2057 24.66 30.551 27.6053 27.6057C30.5505 24.6605 32.2052 20.6658 32.2052 16.5005C32.2052 12.3353 30.5505 8.34062 27.6053 5.39534C24.66 2.45005 20.6653 0.79541 16.5 0.79541C12.3348 0.79541 8.34013 2.45005 5.39485 5.39534C2.44956 8.34062 0.794922 12.3353 0.794922 16.5005V16.5005Z" stroke="#F94144" stroke-width="1.5" stroke-linecap="round" stroke-linejoin="round"/>
<path d="M23.829 11.2655V21.7356" stroke="#F94144" stroke-width="1.5" stroke-linecap="round" stroke-linejoin="round"/>
</svg>
