<svg width="35" height="33" viewBox="0 0 35 33" fill="none" xmlns="http://www.w3.org/2000/svg">
<path d="M19.9125 26.2875L21.0374 25.7257C23.098 24.6956 24.665 22.889 25.3936 20.7035L25.7252 19.7075C25.7893 19.5147 25.798 19.3078 25.7504 19.1103C25.7027 18.9128 25.6007 18.7326 25.4557 18.5903C25.3108 18.4479 25.1288 18.349 24.9305 18.3049C24.7322 18.2608 24.5255 18.2733 24.3339 18.3408L7.97437 24.1159" fill="none" stroke="currentColor" stroke-width="1.5" stroke-linecap="round" stroke-linejoin="round"/>
<path d="M22.2142 21.7067L14.9755 2.07676C14.9079 1.892 14.7913 1.7291 14.6382 1.60553C14.4851 1.48197 14.3013 1.40238 14.1064 1.37531C13.9115 1.34823 13.713 1.37469 13.532 1.45184C13.351 1.52899 13.1944 1.65393 13.079 1.81327C11.4836 4.01529 8.87183 8.07332 8.87183 11.0861C8.93712 13.9381 9.2227 16.7807 9.726 19.5887C9.75262 19.7452 9.81323 19.8939 9.90356 20.0244C9.99388 20.1549 10.1117 20.2641 10.2488 20.3441C10.3858 20.4242 10.5388 20.4732 10.6968 20.4878C10.8549 20.5023 11.0142 20.4821 11.1636 20.4284L25.159 15.4293" fill="none" stroke="currentColor" stroke-width="1.5" stroke-linecap="round" stroke-linejoin="round"/>
<path d="M21.646 10.8414L12.4615 14.2856" fill="none" stroke="currentColor" stroke-width="1.5" stroke-linecap="round" stroke-linejoin="round"/>
<path d="M33.3692 31.3082C32.5659 31.3006 31.7764 31.0992 31.0676 30.7212C30.3588 30.3431 29.7518 29.7995 29.2981 29.1366C28.8497 29.8049 28.2437 30.3525 27.5336 30.7312C26.8235 31.1098 26.0311 31.3079 25.2263 31.3079C24.4216 31.3079 23.6292 31.1098 22.9191 30.7312C22.209 30.3525 21.603 29.8049 21.1546 29.1366C20.7061 29.8049 20.1001 30.3525 19.39 30.7312C18.6799 31.1098 17.8875 31.3079 17.0828 31.3079C16.278 31.3079 15.4856 31.1098 14.7755 30.7312C14.0654 30.3525 13.4594 29.8049 13.011 29.1366C12.5571 29.7996 11.9498 30.3433 11.2408 30.7213C10.5318 31.0994 9.74197 31.3007 8.93849 31.3082C8.13518 31.3009 7.34553 31.0996 6.63673 30.7215C5.92793 30.3434 5.32095 29.7997 4.86743 29.1366C4.4135 29.7996 3.80623 30.3433 3.09722 30.7213C2.38821 31.0994 1.5984 31.3007 0.794922 31.3082" fill="none" stroke="currentColor" stroke-width="1.5" stroke-linecap="round" stroke-linejoin="round"/>
</svg>
