<svg width="33" height="33" viewBox="0 0 33 33" fill="none" xmlns="http://www.w3.org/2000/svg">
<path d="M9.99121 7.48547C14.0912 13.5963 19.5803 18.7717 26.0616 22.6374" stroke="#F94144" stroke-width="1.5" stroke-linecap="round" stroke-linejoin="round"/>
<path d="M19.9122 18.3337L23.1176 15.3116C24.2207 14.2696 25.6393 13.5759 27.178 13.3259C28.4464 13.1217 29.6161 12.5509 30.5252 11.6924C31.6331 10.5619 32.2338 9.07099 32.2016 7.53212C32.1694 5.99325 31.5066 4.52587 30.3523 3.43751C29.198 2.34915 27.6417 1.7243 26.0095 1.69391C24.3773 1.66352 22.7961 2.22996 21.5971 3.2745C20.686 4.13238 20.0805 5.23621 19.8645 6.43302C19.5979 7.88333 18.8623 9.22047 17.7585 10.2614L14.5559 13.2835" stroke="#F94144" stroke-width="1.5" stroke-linecap="round" stroke-linejoin="round"/>
<path d="M5.83398 21.7954C5.83398 22.4207 5.96461 23.0399 6.21841 23.6176C6.47221 24.1953 6.84421 24.7202 7.31317 25.1624C7.78213 25.6045 8.33886 25.9553 8.95159 26.1946C9.56431 26.4339 10.221 26.557 10.8842 26.557C11.5474 26.557 12.2042 26.4339 12.8169 26.1946C13.4296 25.9553 13.9863 25.6045 14.4553 25.1624C14.9243 24.7202 15.2963 24.1953 15.5501 23.6176C15.8039 23.0399 15.9345 22.4207 15.9345 21.7954C15.9345 21.1701 15.8039 20.5509 15.5501 19.9732C15.2963 19.3955 14.9243 18.8706 14.4553 18.4285C13.9863 17.9863 13.4296 17.6356 12.8169 17.3963C12.2042 17.157 11.5474 17.0338 10.8842 17.0338C10.221 17.0338 9.56431 17.157 8.95159 17.3963C8.33886 17.6356 7.78213 17.9863 7.31317 18.4285C6.84421 18.8706 6.47221 19.3955 6.21841 19.9732C5.96461 20.5509 5.83398 21.1701 5.83398 21.7954Z" stroke="#F94144" stroke-width="1.5" stroke-linecap="round" stroke-linejoin="round"/>
<path d="M20.5102 18.8091C21.2179 20.8455 21.1772 23.0473 20.3945 25.0591C19.6118 27.071 18.1329 28.7755 16.1965 29.8974C14.2601 31.0194 11.9792 31.4934 9.72195 31.2428C7.46472 30.9923 5.3629 30.0318 3.75577 28.5166C2.14865 27.0013 1.13 25.0196 0.864267 22.8914C0.598536 20.7631 1.10123 18.6126 2.29119 16.7868C3.48116 14.9611 5.28896 13.5667 7.42277 12.8288C9.55658 12.0909 11.8919 12.0524 14.0517 12.7197" stroke="#F94144" stroke-width="1.5" stroke-linecap="round" stroke-linejoin="round"/>
</svg>
