<svg width="33" height="35" viewBox="0 0 33 35" fill="none" xmlns="http://www.w3.org/2000/svg">
<path d="M8.03845 11.9663V32.9962C8.03845 33.2898 8.14989 33.5713 8.34824 33.7789C8.5466 33.9864 8.81563 34.1031 9.09614 34.1031H23.9038C24.1844 34.1031 24.4534 33.9864 24.6517 33.7789C24.8501 33.5713 24.9615 33.2898 24.9615 32.9962V11.9663" stroke="#F94144" stroke-width="1.5" stroke-linecap="round" stroke-linejoin="round"/>
<path d="M24.9615 18.6073H30.25C30.5305 18.6073 30.7995 18.4907 30.9979 18.2832C31.1962 18.0756 31.3076 17.7941 31.3076 17.5005V9.75265C31.3076 7.40424 30.4162 5.15201 28.8293 3.49143C27.2425 1.83085 25.0902 0.897949 22.8461 0.897949H20.7307C20.7307 2.07216 20.285 3.19827 19.4916 4.02856C18.6981 4.85885 17.622 5.3253 16.5 5.3253C15.3779 5.3253 14.3018 4.85885 13.5083 4.02856C12.7149 3.19827 12.2692 2.07216 12.2692 0.897949H10.1538C7.90966 0.897949 5.75743 1.83085 4.17059 3.49143C2.58374 5.15201 1.69226 7.40424 1.69226 9.75265V17.5005C1.69226 17.7941 1.8037 18.0756 2.00205 18.2832C2.20041 18.4907 2.46944 18.6073 2.74995 18.6073H8.03841" stroke="#F94144" stroke-width="1.5" stroke-linecap="round" stroke-linejoin="round"/>
</svg>
