<svg width="32" height="33" viewBox="0 0 32 33" fill="none" xmlns="http://www.w3.org/2000/svg">
<path d="M5.86499 0.79541H26.8043V7.07719H5.86499V0.79541Z" stroke="#F94144" stroke-width="1.5" stroke-linecap="round" stroke-linejoin="round"/>
<path d="M7.57778 7.04932C-2.45354 12.2004 2.31504 26.8453 7.3614 31.6809C7.74173 32.029 8.24192 32.2166 8.75736 32.2044H23.9104C24.4259 32.2169 24.9262 32.0292 25.3064 31.6809C30.3527 26.8453 35.1199 12.2046 25.0956 7.05071" stroke="#F94144" stroke-width="1.5" stroke-linecap="round" stroke-linejoin="round"/>
<path d="M20.5224 17.8581V13.1049L16.2969 11.265L12.1467 13.1049V17.8581L16.2969 19.698L20.5224 17.8581Z" stroke="#F94144" stroke-width="1.5" stroke-linecap="round" stroke-linejoin="round"/>
<path d="M16.2969 24.4512V19.698L12.1467 17.8582L7.95886 19.698V24.4512L12.109 26.2911L16.2969 24.4512Z" stroke="#F94144" stroke-width="1.5" stroke-linecap="round" stroke-linejoin="round"/>
<path d="M16.2969 24.4512V19.698L20.5224 17.8582L24.6349 19.698V24.4512L20.4847 26.2911L16.2969 24.4512Z" stroke="#F94144" stroke-width="1.5" stroke-linecap="round" stroke-linejoin="round"/>
</svg>
