<svg width="37" height="38" viewBox="0 0 37 38" fill="none" xmlns="http://www.w3.org/2000/svg">
<path d="M36.0513 16.5966V37.0257H0.94873V16.5966" stroke="white" stroke-width="1.5" stroke-linecap="round" stroke-linejoin="round"/>
<path d="M36.0513 16.5966H25.5205C25.5205 14.6843 24.7809 12.8503 23.4643 11.4982C22.1477 10.146 20.362 9.38633 18.5 9.38633C16.6381 9.38633 14.8524 10.146 13.5358 11.4982C12.2192 12.8503 11.4795 14.6843 11.4795 16.5966H0.94873L5.12048 2.67118C5.26764 2.1798 5.56435 1.74983 5.96702 1.44442C6.36969 1.13902 6.85711 0.974265 7.35768 0.974365H29.6423C30.1429 0.974265 30.6303 1.13902 31.033 1.44442C31.4357 1.74983 31.7324 2.1798 31.8795 2.67118L36.0513 16.5966Z" stroke="white" stroke-width="1.5" stroke-linecap="round" stroke-linejoin="round"/>
<path d="M20.8403 21.4033H16.1599V15.9956C16.1599 14.9942 17.2083 14.193 18.5001 14.193C19.7919 14.193 20.8403 14.9942 20.8403 15.9956V21.4033Z" stroke="white" stroke-width="1.5" stroke-linecap="round" stroke-linejoin="round"/>
<path d="M20.8403 37.0256H16.1599V28.6136C16.1599 27.9762 16.4065 27.3649 16.8453 26.9142C17.2842 26.4634 17.8794 26.2102 18.5001 26.2102C19.1207 26.2102 19.716 26.4634 20.1548 26.9142C20.5937 27.3649 20.8403 27.9762 20.8403 28.6136V37.0256Z" stroke="white" stroke-width="1.5" stroke-linecap="round" stroke-linejoin="round"/>
<path d="M5.62939 21.4033H10.3097" stroke="white" stroke-width="1.5" stroke-linecap="round" stroke-linejoin="round"/>
<path d="M26.6904 21.4033H31.3708" stroke="white" stroke-width="1.5" stroke-linecap="round" stroke-linejoin="round"/>
<path d="M5.62939 26.2102H10.3097V31.017H5.62939V26.2102Z" stroke="white" stroke-width="1.5" stroke-linecap="round" stroke-linejoin="round"/>
<path d="M26.6904 26.2102H31.3708V31.017H26.6904V26.2102Z" stroke="white" stroke-width="1.5" stroke-linecap="round" stroke-linejoin="round"/>
</svg>
