<svg width="294" height="122" viewBox="0 0 294 122" fill="none" xmlns="http://www.w3.org/2000/svg">
<g clip-path="url(#clip0_1_639)">
<path d="M3.94686 0H0V14.9981H3.94686V0Z" fill="#3F3F3F"/>
<path fill-rule="evenodd" clip-rule="evenodd" d="M6.31543 0H13.2071L21.5598 10.8945H21.5991V0H26.0441V14.9981H19.1525L10.7998 4.10361H10.7605V14.9981H6.31543V0Z" fill="#3F3F3F"/>
<path fill-rule="evenodd" clip-rule="evenodd" d="M40.7327 11.6614C41.1805 11.6614 41.5669 11.6222 41.8747 11.5382C42.1883 11.4543 42.4402 11.3087 42.6362 11.1072C42.8321 10.9056 42.972 10.6314 43.0673 10.2786C43.1624 9.93149 43.2072 9.48367 43.2072 8.93502V6.05186C43.2072 5.50882 43.1624 5.06094 43.0673 4.71384C42.972 4.36674 42.8321 4.08682 42.6362 3.88528C42.4402 3.68374 42.1883 3.53818 41.8747 3.45421C41.5613 3.37023 41.1805 3.33104 40.7327 3.33104H33.3429V11.6614H40.7327ZM42.0428 0C43.168 0 44.1197 0.0951725 44.8979 0.291116C45.6761 0.481462 46.3087 0.789373 46.7902 1.21485C47.2716 1.63473 47.6188 2.17777 47.8259 2.83838C48.0386 3.49899 48.1449 4.29396 48.1449 5.21769V9.77478C48.1449 10.6985 48.0386 11.4935 47.8314 12.1541C47.6188 12.8147 47.2773 13.3577 46.7957 13.7777C46.3143 14.1975 45.6816 14.5054 44.9035 14.7014C44.1253 14.8973 43.1736 14.9925 42.0483 14.9925H28.4107V0H42.0428Z" fill="#3F3F3F"/>
<path fill-rule="evenodd" clip-rule="evenodd" d="M75.4509 7.47944L69.1415 0H74.628L78.9275 5.24009L83.2271 0H88.7079L82.4041 7.47944L89.1838 14.9981H83.4902L78.9275 9.55085L74.3592 14.9981H68.6656L75.4509 7.47944Z" fill="#3F3F3F"/>
<path fill-rule="evenodd" clip-rule="evenodd" d="M63.7644 4.54589C63.6525 4.22118 63.4509 3.96926 63.1541 3.78451C62.8575 3.59976 62.4656 3.47659 61.9674 3.42061C61.4691 3.36463 59.7279 3.33104 58.9554 3.33104C58.0877 3.33104 56.5145 3.35903 56.005 3.42061C55.5012 3.47659 55.1093 3.59976 54.8461 3.78451C54.5774 3.96926 54.4039 4.22678 54.32 4.54589C54.2359 4.8706 54.1968 5.29607 54.1968 5.82792H63.9324C63.9268 5.30167 63.8708 4.8706 63.7644 4.54589ZM50.1603 3.33664C50.4515 2.46329 50.8713 1.78029 51.4199 1.28203C51.963 0.789373 52.6068 0.453469 53.3514 0.268722C54.096 0.0895742 54.9246 0 55.8427 0H60.3998C61.7154 0 62.8463 0.0895742 63.798 0.268722C64.7498 0.447871 65.5223 0.772577 66.1213 1.23724C66.7148 1.70191 67.157 2.34572 67.4426 3.16308C67.728 3.98045 67.8737 5.01615 67.8737 6.2702V8.72229H54.1688V9.60683C54.3255 11.5718 55.8427 11.5718 57.2311 11.5718H60.6518C61.3291 11.5718 61.8554 11.5271 62.2361 11.4319C62.6167 11.3368 62.8966 11.2136 63.0814 11.0624C63.2606 10.9113 63.3725 10.7321 63.4173 10.5361C63.4621 10.3346 63.4845 10.133 63.4845 9.92594H67.8849V10.553C67.8849 11.4655 67.7113 12.2101 67.3641 12.7923C67.0171 13.3746 66.5468 13.8224 65.9477 14.1471C65.3487 14.4718 64.6545 14.6957 63.8596 14.8189C63.0646 14.9421 62.2136 15.0037 61.3179 15.0037H56.4977C55.6691 15.0037 54.8518 14.9365 54.0456 14.8022C53.2394 14.6678 52.5172 14.3654 51.8791 13.8896C51.2408 13.4138 50.7202 12.7195 50.3227 11.807C49.9252 10.8945 49.7293 9.65721 49.7293 8.10086V6.70127C49.7236 5.32966 49.8692 4.20998 50.1603 3.33664Z" fill="#3F3F3F"/>
<path d="M133.414 80.8686V2.90556C133.414 1.04129 134.461 0 136.326 0H147.959C149.823 0 150.87 1.0469 150.87 2.90556V80.8631C150.87 82.7273 149.823 83.7687 147.959 83.7687H136.326C134.461 83.7742 133.414 82.7273 133.414 80.8686Z" fill="#F9C74F"/>
<path d="M52.9439 33.1314C47.3512 27.449 39.5358 23.9724 30.8359 23.9724C13.7273 23.9668 0 37.3526 0 54.6852C0 72.0178 13.7273 85.4036 30.8359 85.4036C39.5358 85.4036 47.3512 81.927 52.9439 76.2445C58.3464 70.7526 61.6718 63.2059 61.6718 54.6852C61.6662 46.1701 58.3408 38.6179 52.9439 33.1314ZM30.8359 68.418C23.2724 68.418 17.4557 62.9484 17.4557 54.6852C17.4557 46.422 23.2724 40.9523 30.8359 40.9523C38.3994 40.9523 44.2161 46.422 44.2161 54.6852C44.2161 62.9484 38.3994 68.418 30.8359 68.418Z" fill="#F94144"/>
<path d="M75.435 76.2433C81.0279 81.9258 88.8432 85.4024 97.5431 85.4024C102.352 85.4024 106.876 84.3163 110.923 82.4072V54.7288C110.901 62.964 105.096 68.4168 97.5431 68.4168C89.9796 68.4168 84.1629 62.9472 84.1629 54.684C84.1629 46.4208 89.9796 40.9511 97.5431 40.9511C105.096 40.9511 110.901 46.404 110.923 54.6392V26.9608C106.876 25.0573 102.352 23.9657 97.5431 23.9657C88.8432 23.9657 81.0279 27.4423 75.435 33.1246C70.0326 38.6167 66.7072 46.1689 66.7072 54.684C66.7072 63.2047 70.0382 70.7569 75.435 76.2433Z" fill="#577590"/>
<path d="M110.921 54.6871C110.921 54.6698 110.915 54.6583 110.915 54.6468V54.7331C110.915 54.7159 110.921 54.7044 110.921 54.6871Z" fill="black"/>
<path d="M125.48 23.9657H113.846C112.228 23.9657 110.918 26.8488 110.918 26.8937V26.9608C121.264 31.837 128.374 42.222 128.374 54.684C128.374 67.146 121.258 77.531 110.918 82.4072V89.7299C110.918 99.549 105.112 105.019 97.555 105.019C90.6298 105.019 85.1937 100.462 84.298 93.3912C84.1468 92.1932 83.128 91.2975 81.9242 91.2975H69.7701C68.0514 91.2975 66.6966 92.7867 66.8646 94.4942C68.4321 110.248 81.5156 121.993 97.555 121.993C113.107 121.993 125.883 110.92 128.049 95.8769C128.279 94.3989 128.38 92.8481 128.38 91.2975V26.8712C128.38 25.2645 127.08 23.9657 125.48 23.9657Z" fill="#F8961E"/>
<path d="M128.379 54.6839C128.379 42.2218 121.263 31.8313 110.923 26.9606V54.6447C110.923 54.6615 110.929 54.6727 110.929 54.6839C110.929 54.6951 110.923 54.7119 110.923 54.7231V82.4015C121.263 77.5365 128.379 67.1515 128.379 54.6839Z" fill="#90BE6D"/>
<path d="M200.128 54.6852C200.128 62.9484 194.311 68.418 186.747 68.418C179.184 68.418 173.367 62.9484 173.367 54.6852C173.367 46.422 179.184 40.9523 186.747 40.9523C194.311 40.958 200.128 46.4276 200.128 54.6852V29.3358C200.128 28.4792 200.195 27.7178 200.318 27.0571C196.226 25.0921 191.629 23.9724 186.747 23.9724C169.644 23.9724 155.911 37.3526 155.911 54.6908C155.911 72.029 169.638 85.4091 186.747 85.4091C191.809 85.4091 196.562 84.2111 200.765 82.1117C200.352 81.2103 200.128 79.9787 200.128 78.4167V54.6852Z" fill="#29ABE2"/>
<path d="M214.671 23.9666H203.038C201.638 23.9666 200.704 25.0583 200.323 27.0514C210.562 31.9611 217.583 42.3014 217.583 54.685V29.3354C217.577 25.8981 216.53 23.9666 214.671 23.9666Z" fill="#43AA8B"/>
<path d="M200.764 82.1045C201.257 83.1794 202.018 83.7728 203.038 83.7728H214.671C216.535 83.7728 217.583 81.8414 217.583 78.4096V54.6836C217.577 66.8937 210.757 77.1107 200.764 82.1045Z" fill="#43AA8B"/>
<path d="M200.317 27.0546C200.188 27.7152 200.127 28.4766 200.127 29.3332V54.6882V78.4142C200.127 79.9762 200.356 81.2078 200.764 82.1091C210.763 77.1154 217.582 66.8927 217.582 54.6882C217.577 42.299 210.556 31.9644 200.317 27.0546Z" fill="#662D91"/>
<path d="M270.818 66.3229C270.818 79.703 259.414 85.4021 246.617 85.4021C234.748 85.4021 224.044 80.05 222.644 67.7168C222.409 65.7406 223.573 64.6937 225.437 64.6937H236.842C238.588 64.6937 239.171 65.623 239.982 67.1346C240.911 69.1108 243.123 70.2753 246.617 70.2753C251.504 70.2753 253.362 68.6461 253.362 66.3172C253.362 57.9421 222.991 65.6174 222.991 43.0448C222.991 29.8942 234.395 23.9598 246.611 23.9598C257.432 23.9598 268.019 29.3119 269.419 41.6451C269.654 43.6213 268.489 44.6683 266.625 44.6683H255.221C253.474 44.6683 252.892 43.739 252.08 42.1098C251.268 40.2455 249.287 39.0867 246.611 39.0867C242.305 39.0867 240.441 40.7159 240.441 43.0448C240.452 51.6606 270.818 43.6326 270.818 66.3229Z" fill="#90BE6D"/>
<path d="M275.858 15.7094V5.23489C275.858 3.37062 276.905 2.32372 278.769 2.32372H290.409C292.272 2.32372 293.314 3.37062 293.314 5.23489V15.7039C293.314 17.5681 292.267 18.6095 290.409 18.6095H278.769C276.905 18.615 275.858 17.5738 275.858 15.7094Z" fill="#F9C74F"/>
<path d="M275.857 80.8708V28.5092C275.857 26.6449 276.904 25.6036 278.768 25.6036H290.408C292.271 25.6036 293.313 26.6506 293.313 28.5092V80.8708C293.313 82.7351 292.266 83.7764 290.408 83.7764H278.768C276.904 83.7764 275.857 82.7295 275.857 80.8708Z" fill="#F94144"/>
</g>
<defs>
<clipPath id="clip0_1_639">
<rect width="293.594" height="122" fill="white"/>
</clipPath>
</defs>
</svg>
