<svg width="35" height="29" viewBox="0 0 35 29" fill="none" xmlns="http://www.w3.org/2000/svg">
<path d="M30.7819 18.2692V3.88031C30.7819 3.2932 30.5486 2.73014 30.1335 2.315C29.7183 1.89985 29.1553 1.66663 28.5682 1.66663H6.43133C5.84423 1.66663 5.28117 1.89985 4.86602 2.315C4.45088 2.73014 4.21765 3.2932 4.21765 3.88031V18.2692H30.7819Z" stroke="#F94144" stroke-width="1.5" stroke-linecap="round" stroke-linejoin="round"/>
<path d="M33.9119 25.1184C34.0616 25.4555 34.1248 25.8246 34.0956 26.1923C34.0664 26.5599 33.9459 26.9145 33.7448 27.2237C33.5438 27.5329 33.2687 27.787 32.9446 27.9629C32.6204 28.1388 32.2574 28.2309 31.8886 28.2309H3.11069C2.74187 28.2309 2.37889 28.1388 2.05471 27.9629C1.73053 27.787 1.45544 27.5329 1.25442 27.2237C1.05341 26.9145 0.932835 26.5599 0.903664 26.1923C0.874493 25.8246 0.937646 25.4555 1.08739 25.1184L4.21754 18.2693H30.7817L33.9119 25.1184Z" stroke="#F94144" stroke-width="1.5" stroke-linecap="round" stroke-linejoin="round"/>
<path d="M15.2861 23.8035H19.7135" stroke="#F94144" stroke-width="1.5" stroke-linecap="round" stroke-linejoin="round"/>
</svg>
