<svg width="35" height="33" viewBox="0 0 35 33" fill="none" xmlns="http://www.w3.org/2000/svg">
<path d="M31.1068 15.7941V27.8577C31.0942 28.9898 30.6326 30.0706 29.8233 30.8624C29.0139 31.6542 27.9233 32.0921 26.7912 32.0798H7.37091C6.23877 32.0921 5.14812 31.6542 4.33881 30.8624C3.5295 30.0706 3.06782 28.9898 3.0553 27.8577V15.7941" stroke="#F94144" stroke-width="1.5" stroke-linecap="round" stroke-linejoin="round"/>
<path d="M33.2645 8.66751C33.2645 8.29438 33.1163 7.93653 32.8525 7.67269C32.5886 7.40885 32.2308 7.26062 31.8577 7.26062H2.30435C1.93122 7.26062 1.57337 7.40885 1.30953 7.67269C1.04569 7.93653 0.897461 8.29438 0.897461 8.66751V12.2365C0.897755 12.8871 1.12346 13.5174 1.53617 14.0203C3.36168 16.2472 8.69865 22.3638 12.1555 22.3638H22.0066C25.459 22.3638 30.8003 16.2414 32.6258 14.0203C33.0385 13.5174 33.2643 12.8871 33.2645 12.2365V8.66751Z" stroke="#F94144" stroke-width="1.5" stroke-linecap="round" stroke-linejoin="round"/>
<path d="M9.44531 7.26497C9.74617 5.45715 10.6787 3.81471 12.0769 2.62994C13.4751 1.44517 15.2484 0.794922 17.0811 0.794922C18.9138 0.794922 20.687 1.44517 22.0852 2.62994C23.4835 3.81471 24.416 5.45715 24.7168 7.26497" stroke="#F94144" stroke-width="1.5" stroke-linecap="round" stroke-linejoin="round"/>
<path d="M19.2389 22.3696V32.0798" stroke="#F94144" stroke-width="1.5" stroke-linecap="round" stroke-linejoin="round"/>
<path d="M14.9232 32.0798V22.3696" stroke="#F94144" stroke-width="1.5" stroke-linecap="round" stroke-linejoin="round"/>
<path d="M25.5253 12.6595H8.63684" stroke="#F94144" stroke-width="1.5" stroke-linecap="round" stroke-linejoin="round"/>
<path d="M23.5543 12.6595V14.7698" stroke="#F94144" stroke-width="1.5" stroke-linecap="round" stroke-linejoin="round"/>
<path d="M26.7913 20.0075V25.7473C26.8013 26.7834 27.1824 27.7816 27.8655 28.5607C28.5486 29.3399 29.4883 29.8483 30.5142 29.9938" stroke="#F94144" stroke-width="1.5" stroke-linecap="round" stroke-linejoin="round"/>
<path d="M7.37093 20.0075V25.7473C7.35602 26.7814 6.9702 27.7758 6.28373 28.5494C5.59726 29.323 4.65578 29.8244 3.63074 29.9622" stroke="#F94144" stroke-width="1.5" stroke-linecap="round" stroke-linejoin="round"/>
</svg>
