<svg width="103" height="100" viewBox="0 0 103 100" fill="none" xmlns="http://www.w3.org/2000/svg">
<g filter="url(#filter0_d_1_924)">
<path d="M56.5752 37.8164C57.837 37.8165 58.9862 38.308 59.8213 39.1934V39.1924C60.6713 40.0936 61.1533 41.3543 61.1533 42.7559C61.1533 44.1127 60.6771 45.3575 59.5371 46.7822L59.3008 47.0693C58.3383 48.2045 57.0168 49.3888 55.4541 50.7119L53.8154 52.085C53.112 52.6707 52.3243 53.3272 51.498 54.0273C51.1408 53.7237 50.7909 53.4275 50.4512 53.1426L49.1895 52.0889L49.1855 52.085C47.0468 50.3035 45.225 48.7844 43.9482 47.3545L43.7002 47.0693C42.3888 45.5228 41.8467 44.2031 41.8467 42.7559C41.8467 41.3544 42.3278 40.0936 43.1777 39.1924L43.1787 39.1934C44.014 38.308 45.1629 37.8165 46.4248 37.8164C47.2221 37.8164 47.96 38.0319 48.6299 38.4619L48.9131 38.6602C49.4997 39.1036 49.9376 39.6556 50.2275 40.0977L50.3428 40.2793C50.5905 40.6849 51.0268 40.9248 51.5 40.9248C51.914 40.9248 52.2998 40.7413 52.5557 40.4238L52.6572 40.2793C52.9407 39.8152 53.4159 39.1659 54.0859 38.6592L54.0869 38.6602C54.8304 38.0983 55.6636 37.8164 56.5752 37.8164ZM42.6465 47.8896C42.3876 47.5832 42.1539 47.2809 41.9443 46.9814L42.6465 47.8896ZM61.8887 39.9023C62.0706 40.2957 62.2137 40.7121 62.3154 41.1465L61.8887 39.9023ZM59.1777 37.0928C59.76 37.3785 60.2903 37.7649 60.752 38.2402L59.1777 37.0928Z" stroke="white" shape-rendering="crispEdges"/>
</g>
<defs>
<filter id="filter0_d_1_924" x="0" y="0" width="103" height="100" filterUnits="userSpaceOnUse" color-interpolation-filters="sRGB">
<feFlood flood-opacity="0" result="BackgroundImageFix"/>
<feColorMatrix in="SourceAlpha" type="matrix" values="0 0 0 0 0 0 0 0 0 0 0 0 0 0 0 0 0 0 127 0" result="hardAlpha"/>
<feOffset dy="4"/>
<feGaussianBlur stdDeviation="20"/>
<feComposite in2="hardAlpha" operator="out"/>
<feColorMatrix type="matrix" values="0 0 0 0 0 0 0 0 0 0 0 0 0 0 0 0 0 0 0.4 0"/>
<feBlend mode="normal" in2="BackgroundImageFix" result="effect1_dropShadow_1_924"/>
<feBlend mode="normal" in="SourceGraphic" in2="effect1_dropShadow_1_924" result="shape"/>
</filter>
</defs>
</svg>
