<svg width="103" height="100" viewBox="0 0 103 100" fill="none" xmlns="http://www.w3.org/2000/svg">
<g filter="url(#filter0_d_1_903)">
<path d="M61.0851 47.1638L52.1406 55.2265L51.5017 55.485L49.5851 53.9861L45.7517 50.885L43.1962 47.784L41.2795 45.3032L40.6406 41.5819L42.5573 37.8607L45.7517 36.6202L48.9462 37.2404L51.5017 39.7213L52.1406 39.1011L55.3351 36.6202L58.5295 37.2404L61.0851 39.1011L62.3628 42.8223L61.0851 47.1638Z" fill="white"/>
<path d="M51.5 56C51.1726 56 50.8569 55.8841 50.6109 55.6734C49.6817 54.8794 48.7859 54.1331 47.9956 53.4749L47.9915 53.4714C45.6744 51.5415 43.6734 49.8747 42.2812 48.2329C40.7249 46.3974 40 44.6571 40 42.7559C40 40.9088 40.648 39.2046 41.8246 37.9573C43.0152 36.6951 44.6489 36 46.4252 36C47.7529 36 48.9688 36.4102 50.039 37.2193C50.5791 37.6276 51.0687 38.1274 51.5 38.7104C51.9315 38.1274 52.4209 37.6276 52.9612 37.2193C54.0314 36.4102 55.2473 36 56.5749 36C58.3511 36 59.985 36.6951 61.1756 37.9573C62.3521 39.2046 63 40.9088 63 42.7559C63 44.6571 62.2753 46.3974 60.719 48.2327C59.3268 49.8747 57.326 51.5413 55.0092 53.4711C54.2174 54.1304 53.3202 54.8778 52.389 55.6738C52.1431 55.8841 51.8273 56 51.5 56ZM46.4252 37.3168C45.0297 37.3168 43.7476 37.8612 42.815 38.8498C41.8685 39.8533 41.3471 41.2405 41.3471 42.7559C41.3471 44.3549 41.9552 45.7849 43.3184 47.3927C44.6361 48.9467 46.596 50.5791 48.8652 52.4693L48.8694 52.4727C49.6628 53.1336 50.5621 53.8827 51.4981 54.6826C52.4397 53.8812 53.3404 53.1308 54.1353 52.469C56.4044 50.5788 58.3641 48.9467 59.6817 47.3927C61.0448 45.7849 61.6529 44.3549 61.6529 42.7559C61.6529 41.2405 61.1315 39.8533 60.185 38.8498C59.2525 37.8612 57.9703 37.3168 56.5749 37.3168C55.5526 37.3168 54.614 37.6345 53.7852 38.2608C53.0466 38.8193 52.5322 39.5252 52.2305 40.0191C52.0754 40.2731 51.8023 40.4248 51.5 40.4248C51.1977 40.4248 50.9246 40.2731 50.7695 40.0191C50.468 39.5252 49.9535 38.8193 49.2148 38.2608C48.386 37.6345 47.4474 37.3168 46.4252 37.3168Z" fill="white"/>
</g>
<defs>
<filter id="filter0_d_1_903" x="0" y="0" width="103" height="100" filterUnits="userSpaceOnUse" color-interpolation-filters="sRGB">
<feFlood flood-opacity="0" result="BackgroundImageFix"/>
<feColorMatrix in="SourceAlpha" type="matrix" values="0 0 0 0 0 0 0 0 0 0 0 0 0 0 0 0 0 0 127 0" result="hardAlpha"/>
<feOffset dy="4"/>
<feGaussianBlur stdDeviation="20"/>
<feComposite in2="hardAlpha" operator="out"/>
<feColorMatrix type="matrix" values="0 0 0 0 0 0 0 0 0 0 0 0 0 0 0 0 0 0 0.4 0"/>
<feBlend mode="normal" in2="BackgroundImageFix" result="effect1_dropShadow_1_903"/>
<feBlend mode="normal" in="SourceGraphic" in2="effect1_dropShadow_1_903" result="shape"/>
</filter>
</defs>
</svg>
