<svg width="33" height="33" viewBox="0 0 33 33" fill="none" xmlns="http://www.w3.org/2000/svg">
<path d="M0.794922 7.07703H32.2052V32.2052H0.794922V7.07703Z" fill="none" stroke="currentColor" stroke-width="1.5" stroke-linecap="round" stroke-linejoin="round"/>
<path d="M19.6411 0.794922H13.359C12.8037 0.794922 12.271 1.01554 11.8783 1.40825C11.4856 1.80095 11.265 2.33357 11.265 2.88894V7.07697H21.7351V2.88894C21.7351 2.33357 21.5145 1.80095 21.1218 1.40825C20.7291 1.01554 20.1965 0.794922 19.6411 0.794922V0.794922Z" fill="none" stroke="currentColor" stroke-width="1.5" stroke-linecap="round" stroke-linejoin="round"/>
<path d="M14.4061 19.6411C14.4061 20.1965 14.6267 20.7291 15.0195 21.1218C15.4122 21.5145 15.9448 21.7352 16.5001 21.7352C17.0555 21.7352 17.5881 21.5145 17.9808 21.1218C18.3735 20.7291 18.5942 20.1965 18.5942 19.6411C18.5942 19.0858 18.3735 18.5531 17.9808 18.1604C17.5881 17.7677 17.0555 17.5471 16.5001 17.5471C15.9448 17.5471 15.4122 17.7677 15.0195 18.1604C14.6267 18.5531 14.4061 19.0858 14.4061 19.6411V19.6411Z" fill="none" stroke="currentColor" stroke-width="1.5" stroke-linecap="round" stroke-linejoin="round"/>
<path d="M18.2788 11.54L18.8958 13.5684C18.9976 13.905 19.2235 14.1905 19.5277 14.367C19.832 14.5435 20.1919 14.5978 20.5347 14.5191L22.5896 14.043C22.9791 13.9552 23.3865 13.9945 23.7521 14.155C24.1176 14.3155 24.4222 14.5888 24.6212 14.935C24.8202 15.2811 24.9031 15.6819 24.8578 16.0785C24.8125 16.4752 24.6414 16.847 24.3696 17.1394L22.9303 18.6903C22.6901 18.9486 22.5565 19.2883 22.5565 19.641C22.5565 19.9938 22.6901 20.3334 22.9303 20.5917L24.3696 22.1427C24.6414 22.4351 24.8125 22.8068 24.8578 23.2035C24.9031 23.6002 24.8202 24.0009 24.6212 24.3471C24.4222 24.6932 24.1176 24.9666 23.7521 25.1271C23.3865 25.2876 22.9791 25.3268 22.5896 25.239L20.5347 24.763C20.1919 24.6842 19.832 24.7386 19.5277 24.9151C19.2235 25.0916 18.9976 25.377 18.8958 25.7137L18.2788 27.7421C18.1641 28.1246 17.9291 28.46 17.6087 28.6985C17.2883 28.9369 16.8996 29.0657 16.5002 29.0657C16.1009 29.0657 15.7121 28.9369 15.3917 28.6985C15.0714 28.46 14.8364 28.1246 14.7217 27.7421L14.1047 25.7137C14.0029 25.377 13.777 25.0916 13.4727 24.9151C13.1685 24.7386 12.8086 24.6842 12.4658 24.763L10.4108 25.239C10.0213 25.3268 9.61399 25.2876 9.24842 25.1271C8.88285 24.9666 8.57827 24.6932 8.37929 24.3471C8.18032 24.0009 8.0974 23.6002 8.14268 23.2035C8.18796 22.8068 8.35906 22.4351 8.63092 22.1427L10.0702 20.5917C10.3104 20.3334 10.4439 19.9938 10.4439 19.641C10.4439 19.2883 10.3104 18.9486 10.0702 18.6903L8.63092 17.1394C8.35906 16.847 8.18796 16.4752 8.14268 16.0785C8.0974 15.6819 8.18032 15.2811 8.37929 14.935C8.57827 14.5888 8.88285 14.3155 9.24842 14.155C9.61399 13.9945 10.0213 13.9552 10.4108 14.043L12.4658 14.5191C12.8086 14.5978 13.1685 14.5435 13.4727 14.367C13.777 14.1905 14.0029 13.905 14.1047 13.5684L14.7217 11.54C14.8364 11.1574 15.0714 10.822 15.3917 10.5836C15.7121 10.3451 16.1009 10.2164 16.5002 10.2164C16.8996 10.2164 17.2883 10.3451 17.6087 10.5836C17.9291 10.822 18.1641 11.1574 18.2788 11.54V11.54Z" fill="none" stroke="currentColor" stroke-width="1.5" stroke-linecap="round" stroke-linejoin="round"/>
</svg>
