<svg width="34" height="36" viewBox="0 0 34 36" fill="none" xmlns="http://www.w3.org/2000/svg">
<path d="M11.1539 22.5471L13.6896 20.6449C13.9484 20.4511 14.2441 20.312 14.5584 20.2362C14.8728 20.1604 15.1993 20.1495 15.518 20.2041C15.8367 20.2587 16.141 20.3777 16.4122 20.5538C16.6834 20.7299 16.9158 20.9595 17.0953 21.2284V21.2284C17.3556 21.619 17.4944 22.0778 17.4944 22.5471C17.4944 23.0164 17.3556 23.4752 17.0953 23.8657L14.6021 27.6049C13.8367 28.7529 12.7412 29.6418 11.4601 30.1542L7.74365 31.6411V35.0513" stroke="white" stroke-width="1.5" stroke-linecap="round" stroke-linejoin="round"/>
<path d="M12.2906 14.5898L6.83421 16.9254C5.22462 17.6157 3.94223 18.8986 3.25268 20.5085L1.4748 24.669C1.11059 25.5186 0.922889 26.4334 0.923096 27.3578V35.0513" stroke="white" stroke-width="1.5" stroke-linecap="round" stroke-linejoin="round"/>
<path d="M12.2905 21.6952V5.49574C12.2905 4.2898 12.7696 3.13325 13.6223 2.28052C14.475 1.42779 15.6316 0.94873 16.8375 0.94873H28.2051C29.411 0.94873 30.5675 1.42779 31.4203 2.28052C32.273 3.13325 32.7521 4.2898 32.7521 5.49574V30.5043C32.7521 31.7102 32.273 32.8668 31.4203 33.7195C30.5675 34.5722 29.411 35.0513 28.2051 35.0513H16.8375C15.6316 35.0513 14.475 34.5722 13.6223 33.7195C12.7696 32.8668 12.2905 31.7102 12.2905 30.5043V29.7465" stroke="white" stroke-width="1.5" stroke-linecap="round" stroke-linejoin="round"/>
<path d="M14.1305 28.2308H32.752" stroke="white" stroke-width="1.5" stroke-linecap="round" stroke-linejoin="round"/>
</svg>
