<svg width="32" height="33" viewBox="0 0 32 33" fill="none" xmlns="http://www.w3.org/2000/svg">
<path d="M11.1155 20.6886L13.451 18.9366C13.6894 18.7581 13.9617 18.63 14.2512 18.5602C14.5408 18.4904 14.8415 18.4803 15.1351 18.5306C15.4286 18.5809 15.7089 18.6905 15.9586 18.8527C16.2084 19.015 16.4225 19.2264 16.5879 19.4741V19.4741C16.8276 19.8338 16.9554 20.2564 16.9554 20.6886C16.9554 21.1209 16.8276 21.5434 16.5879 21.9032L14.2914 25.3471C13.5865 26.4045 12.5775 27.2232 11.3975 27.6952L7.97449 29.0647V32.2057" stroke="#F94144" stroke-width="1.5" stroke-linecap="round" stroke-linejoin="round"/>
<path d="M12.1625 13.3595L7.13683 15.5108C5.65432 16.1465 4.47316 17.3281 3.83805 18.8109L2.20053 22.643C1.86508 23.4255 1.69219 24.2681 1.69238 25.1195V32.2057" stroke="#F94144" stroke-width="1.5" stroke-linecap="round" stroke-linejoin="round"/>
<path d="M12.1624 19.904V4.98344C12.1624 3.87271 12.6036 2.80747 13.389 2.02206C14.1744 1.23665 15.2397 0.79541 16.3504 0.79541H26.8205C27.9312 0.79541 28.9965 1.23665 29.7819 2.02206C30.5673 2.80747 31.0085 3.87271 31.0085 4.98344V28.0176C31.0085 29.1284 30.5673 30.1936 29.7819 30.979C28.9965 31.7644 27.9312 32.2057 26.8205 32.2057H16.3504C15.2397 32.2057 14.1744 31.7644 13.389 30.979C12.6036 30.1936 12.1624 29.1284 12.1624 28.0176V27.3196" stroke="#F94144" stroke-width="1.5" stroke-linecap="round" stroke-linejoin="round"/>
<path d="M13.8571 25.9236H31.0085" stroke="#F94144" stroke-width="1.5" stroke-linecap="round" stroke-linejoin="round"/>
</svg>
