<svg width="62" height="62" viewBox="0 0 62 62" fill="none" xmlns="http://www.w3.org/2000/svg">
<g clip-path="url(#clip0_1_1066)">
<path d="M62 0H0V62H62V0Z" fill="white"/>
<path d="M8.14053 33.0653L9.29544 30.0362L6.59895 22.9625C6.40534 22.4522 6.39181 21.8912 6.56058 21.3722C6.72935 20.8532 7.07031 20.4075 7.52699 20.1087L13.8635 15.9712L15.8408 8.6654C15.9836 8.13853 16.3024 7.67637 16.7441 7.35562C17.1858 7.03488 17.7239 6.87486 18.2692 6.90212L25.8276 7.28622L31.7207 2.52999C32.146 2.18703 32.6759 2 33.2223 2C33.7687 2 34.2986 2.18703 34.7239 2.52999L40.617 7.28622L48.1754 6.90985C48.7206 6.88259 49.2588 7.04262 49.7005 7.36336C50.1422 7.6841 50.461 8.14627 50.6038 8.67314L52.5811 15.9789L58.9176 20.1165C59.3746 20.4149 59.7159 20.8606 59.8847 21.3797C60.0535 21.8988 60.0397 22.46 59.8456 22.9702L57.1517 30.044L59.8456 37.1152C60.0399 37.6257 60.0537 38.1873 59.8849 38.7069C59.7161 39.2264 59.3748 39.6726 58.9176 39.9715L52.5811 44.0961L50.5935 51.4045C50.4516 51.9321 50.1331 52.3951 49.6913 52.7164C49.2494 53.0377 48.7108 53.198 48.1651 53.1704L40.6067 52.794L34.7136 57.5399" stroke="#F94144" stroke-width="1.5" stroke-linecap="round" stroke-linejoin="round"/>
<path d="M2 51.0305L6.26901 57.7563" stroke="#F94144" stroke-width="1.5" stroke-linecap="round" stroke-linejoin="round"/>
<path d="M25.6084 21.0703L41.8338 46.6328" stroke="#F94144" stroke-width="1.5" stroke-linecap="round" stroke-linejoin="round"/>
<path d="M40.9805 45.2872L5.41571 56.4134L2.85327 52.3764L26.4618 22.416L40.9805 45.2872Z" stroke="#F94144" stroke-width="1.5" stroke-linecap="round" stroke-linejoin="round"/>
<path d="M13.1005 54.0082L15.3587 57.4781C15.7321 58.0903 16.2267 58.6196 16.8121 59.0337C17.3975 59.4478 18.0613 59.7378 18.7628 59.8861C19.4644 60.0343 20.1888 60.0376 20.8917 59.8957C21.5946 59.7538 22.261 59.4697 22.8501 59.0609C24.0544 58.1942 24.882 56.9 25.1633 55.4431C25.4446 53.9862 25.1584 52.4769 24.3633 51.2241L23.9431 50.6157" stroke="#F94144" stroke-width="1.5" stroke-linecap="round" stroke-linejoin="round"/>
</g>
<defs>
<clipPath id="clip0_1_1066">
<rect width="62" height="62" fill="white"/>
</clipPath>
</defs>
</svg>
