<svg width="56" height="58" viewBox="0 0 56 58" fill="none" xmlns="http://www.w3.org/2000/svg">
<path d="M3.14053 32.0653L4.29544 29.0362L1.59895 21.9625C1.40534 21.4522 1.39181 20.8912 1.56058 20.3722C1.72935 19.8532 2.07031 19.4075 2.52699 19.1087L8.86347 14.9712L10.8408 7.6654C10.9836 7.13853 11.3024 6.67637 11.7441 6.35562C12.1858 6.03488 12.7239 5.87486 13.2692 5.90212L20.8276 6.28622L26.7207 1.52999C27.146 1.18703 27.6759 1 28.2223 1C28.7687 1 29.2986 1.18703 29.7239 1.52999L35.617 6.28622L43.1754 5.90985C43.7206 5.88259 44.2588 6.04262 44.7005 6.36336C45.1422 6.6841 45.461 7.14627 45.6038 7.67314L47.5811 14.9789L53.9176 19.1165C54.3746 19.4149 54.7159 19.8606 54.8847 20.3797C55.0535 20.8988 55.0397 21.46 54.8456 21.9702L52.1517 29.044L54.8456 36.1152C55.0399 36.6257 55.0537 37.1873 54.8849 37.7069C54.7161 38.2264 54.3748 38.6726 53.9176 38.9715L47.5811 43.0961L45.5935 50.4045C45.4516 50.9321 45.1331 51.3951 44.6913 51.7164C44.2494 52.0377 43.7108 52.198 43.1651 52.1704L35.6067 51.794L29.7136 56.5399" stroke="#F94144" stroke-width="1.5" stroke-linecap="round" stroke-linejoin="round"/>
</svg>
