<svg width="35" height="35" viewBox="0 0 35 35" fill="none" xmlns="http://www.w3.org/2000/svg">
<path d="M8.64532 15.2825C8.20749 15.2825 7.7795 15.4123 7.41546 15.6555C7.05143 15.8988 6.7677 16.2445 6.60015 16.649C6.4326 17.0535 6.38876 17.4986 6.47418 17.928C6.55959 18.3574 6.77042 18.7519 7.08001 19.0615C7.3896 19.371 7.78404 19.5819 8.21345 19.6673C8.64286 19.7527 9.08796 19.7089 9.49245 19.5413C9.89695 19.3738 10.2427 19.09 10.4859 18.726C10.7292 18.362 10.859 17.934 10.859 17.4961C10.859 16.909 10.6258 16.346 10.2106 15.9308C9.79548 15.5157 9.23242 15.2825 8.64532 15.2825Z" stroke="#F94144" stroke-width="1.5" stroke-miterlimit="10"/>
<path d="M26.3547 15.2825C25.9168 15.2825 25.4889 15.4123 25.1248 15.6555C24.7608 15.8988 24.477 16.2445 24.3095 16.649C24.142 17.0535 24.0981 17.4986 24.1835 17.928C24.2689 18.3574 24.4798 18.7519 24.7894 19.0615C25.099 19.371 25.4934 19.5819 25.9228 19.6673C26.3522 19.7527 26.7973 19.7089 27.2018 19.5413C27.6063 19.3738 27.952 19.09 28.1953 18.726C28.4385 18.362 28.5683 17.934 28.5683 17.4961C28.5683 16.909 28.3351 16.346 27.92 15.9308C27.5048 15.5157 26.9418 15.2825 26.3547 15.2825Z" stroke="#F94144" stroke-width="1.5" stroke-miterlimit="10"/>
<path d="M17.5001 15.2825C17.0622 15.2825 16.6342 15.4123 16.2702 15.6555C15.9062 15.8988 15.6224 16.2445 15.4549 16.649C15.2873 17.0535 15.2435 17.4986 15.3289 17.928C15.4143 18.3574 15.6252 18.7519 15.9347 19.0615C16.2443 19.371 16.6388 19.5819 17.0682 19.6673C17.4976 19.7527 17.9427 19.7089 18.3472 19.5413C18.7517 19.3738 19.0974 19.09 19.3407 18.726C19.5839 18.362 19.7137 17.934 19.7137 17.4961C19.7137 16.909 19.4805 16.346 19.0654 15.9308C18.6502 15.5157 18.0872 15.2825 17.5001 15.2825Z" stroke="#F94144" stroke-width="1.5" stroke-miterlimit="10"/>
<path d="M0.897461 17.5005C0.897461 21.9038 2.64665 26.1267 5.76024 29.2403C8.87382 32.3539 13.0968 34.1031 17.5 34.1031C21.9033 34.1031 26.1262 32.3539 29.2398 29.2403C32.3534 26.1267 34.1026 21.9038 34.1026 17.5005C34.1026 13.0972 32.3534 8.87431 29.2398 5.76073C26.1262 2.64714 21.9033 0.897949 17.5 0.897949C13.0968 0.897949 8.87382 2.64714 5.76024 5.76073C2.64665 8.87431 0.897461 13.0972 0.897461 17.5005V17.5005Z" stroke="#F94144" stroke-width="1.5" stroke-linecap="round" stroke-linejoin="round"/>
</svg>
