<svg width="20" height="20" viewBox="0 0 20 20" fill="none" xmlns="http://www.w3.org/2000/svg">
<g clip-path="url(#clip0_1_143)">
<path d="M8.19112 16.3955C9.87753 16.3955 11.4355 15.8811 12.7364 15.0131L17.4423 19.7227C17.8119 20.0924 18.4221 20.0924 18.8075 19.7227L19.7229 18.8065C20.0924 18.4368 20.0924 17.826 19.7229 17.4403L15.0011 12.7466C15.8681 11.4446 16.3823 9.88547 16.3823 8.19771C16.3823 3.68093 12.7043 0 8.19112 0C3.67797 0 0 3.68093 0 8.19771C0 12.7143 3.66192 16.3955 8.19112 16.3955ZM8.19112 3.21479C10.9376 3.21479 13.17 5.44907 13.17 8.19771C13.17 10.9464 10.9376 13.1806 8.19112 13.1806C5.44469 13.1806 3.2122 10.9464 3.2122 8.19771C3.2122 5.44907 5.44469 3.21479 8.19112 3.21479Z" fill="#F6F6F6"/>
</g>
<defs>
<clipPath id="clip0_1_143">
<rect width="20" height="20" fill="white"/>
</clipPath>
</defs>
</svg>
