<svg width="35" height="35" viewBox="0 0 35 35" fill="none" xmlns="http://www.w3.org/2000/svg">
<path d="M0.897461 20.821V34.1031" stroke="#F94144" stroke-width="1.5" stroke-linecap="round" stroke-linejoin="round"/>
<path d="M0.897461 31.8894H23.0342C23.0342 30.7152 22.5678 29.589 21.7375 28.7588C20.9072 27.9285 19.7811 27.462 18.6069 27.462H13.0727C13.0727 26.2878 12.6062 25.1617 11.7759 24.3314C10.9456 23.5011 9.81953 23.0347 8.64532 23.0347H0.897461" stroke="#F94144" stroke-width="1.5" stroke-linecap="round" stroke-linejoin="round"/>
<path d="M8.64526 27.462H13.0726" stroke="#F94144" stroke-width="1.5" stroke-linecap="round" stroke-linejoin="round"/>
<path d="M18.6055 14.18C18.6055 15.0607 18.9553 15.9053 19.578 16.528C20.2007 17.1507 21.0453 17.5005 21.926 17.5005C22.8066 17.5005 23.6512 17.1507 24.2739 16.528C24.8967 15.9053 25.2465 15.0607 25.2465 14.18C25.2465 13.2994 24.8967 12.4548 24.2739 11.8321C23.6512 11.2093 22.8066 10.8595 21.926 10.8595C21.0453 10.8595 20.2007 11.2093 19.578 11.8321C18.9553 12.4548 18.6055 13.2994 18.6055 14.18V14.18Z" stroke="#F94144" stroke-width="1.5" stroke-linecap="round" stroke-linejoin="round"/>
<path d="M24.6133 24.1401L24.8479 22.4975C25.8839 22.1365 26.843 21.5843 27.6755 20.8697L30.5474 22.0223C31.0419 22.2209 31.5915 22.2344 32.0952 22.0604C32.5989 21.8863 33.0229 21.5364 33.2894 21.0749L33.5846 20.5657C33.851 20.1042 33.942 19.5621 33.8409 19.0389C33.7398 18.5156 33.4533 18.0464 33.0341 17.7175L30.6241 15.8255C30.8445 14.7391 30.8445 13.6195 30.6241 12.533L33.0341 10.6411C33.4523 10.3113 33.7376 9.8417 33.8377 9.31853C33.9377 8.79535 33.8457 8.25366 33.5786 7.79281L33.2835 7.28367C33.017 6.82213 32.593 6.47222 32.0893 6.29817C31.5856 6.12412 31.036 6.13763 30.5415 6.33622L27.6755 7.4888C26.8449 6.77658 25.8884 6.226 24.8553 5.86544L24.4126 2.80467C24.3384 2.27502 24.075 1.79013 23.6711 1.43963C23.2671 1.08912 22.7499 0.896711 22.2151 0.897955H21.6248C21.0934 0.899656 20.5803 1.09248 20.1793 1.44119C19.7783 1.78991 19.5161 2.27125 19.4406 2.79729L18.9979 5.85806C17.9653 6.21863 17.0093 6.76922 16.1792 7.48142L13.3117 6.33622C12.8174 6.13804 12.2681 6.12474 11.7647 6.29877C11.2614 6.4728 10.8376 6.82248 10.5712 7.28367L10.276 7.79281C10.0094 8.25416 9.91817 8.79618 10.019 9.31939C10.1199 9.8426 10.406 10.3119 10.825 10.6411L13.2379 12.533C13.0156 13.6193 13.0156 14.7393 13.2379 15.8255L10.8265 17.7175" stroke="#F94144" stroke-width="1.5" stroke-linecap="round" stroke-linejoin="round"/>
</svg>
