<svg width="12" height="6" viewBox="0 0 12 6" fill="none" xmlns="http://www.w3.org/2000/svg">
<path d="M0.749983 1.0001C0.74964 0.82486 0.810672 0.655033 0.922483 0.520099C0.985445 0.444155 1.06277 0.381379 1.15003 0.335365C1.23729 0.289351 1.33277 0.261003 1.431 0.251946C1.52924 0.24289 1.62829 0.253301 1.72249 0.282584C1.8167 0.311868 1.9042 0.359447 1.97998 0.422599L5.99998 3.7826L10.0275 0.5426C10.1042 0.4803 10.1925 0.433776 10.2872 0.405702C10.382 0.377629 10.4813 0.368558 10.5796 0.379013C10.6779 0.389467 10.7731 0.41924 10.8599 0.46662C10.9466 0.514001 11.0231 0.578054 11.085 0.655099C11.1533 0.732699 11.2048 0.823573 11.2363 0.92202C11.2677 1.02047 11.2785 1.12436 11.268 1.22718C11.2574 1.33 11.2257 1.42953 11.1749 1.51951C11.124 1.6095 11.0551 1.688 10.9725 1.7501L6.47248 5.3726C6.33828 5.48291 6.16995 5.54321 5.99623 5.54321C5.82251 5.54321 5.65418 5.48291 5.51998 5.3726L1.01998 1.6226C0.929221 1.54736 0.857472 1.45179 0.810561 1.34363C0.76365 1.23547 0.742895 1.11778 0.749983 1.0001Z" fill="#F94144"/>
</svg>
