<svg width="35" height="35" viewBox="0 0 35 35" fill="none" xmlns="http://www.w3.org/2000/svg">
<path d="M0.897461 9.19933C0.897461 11.401 1.77207 13.5125 3.32888 15.0693C4.88569 16.6261 6.99718 17.5007 9.19884 17.5007C11.4005 17.5007 13.512 16.6261 15.0688 15.0693C16.6256 13.5125 17.5002 11.401 17.5002 9.19933C17.5002 6.99767 16.6256 4.88618 15.0688 3.32937C13.512 1.77256 11.4005 0.897949 9.19884 0.897949C6.99718 0.897949 4.88569 1.77256 3.32888 3.32937C1.77207 4.88618 0.897461 6.99767 0.897461 9.19933V9.19933Z" stroke="#F94144" stroke-width="1.5" stroke-linecap="round" stroke-linejoin="round"/>
<path d="M21.1056 21.283H9.57957C8.79062 21.2832 8.02778 21.5657 7.42887 22.0792C6.82995 22.5927 6.43444 23.3036 6.31379 24.0832C6.19314 24.8629 6.35531 25.66 6.771 26.3305C7.18669 27.0011 7.82848 27.5009 8.58045 27.7396L25.7307 33.1868C26.0104 33.2758 26.3139 33.25 26.5746 33.1152C26.8353 32.9805 27.0318 32.7477 27.1209 32.4681L29.798 24.0398L28.7561 24.5784C26.6177 25.6912 22.8721 24.6876 21.1056 21.283Z" stroke="#F94144" stroke-width="1.5" stroke-linecap="round" stroke-linejoin="round"/>
<path d="M23.1228 34.1033L23.6246 32.5227" stroke="#F94144" stroke-width="1.5" stroke-linecap="round" stroke-linejoin="round"/>
<path d="M18.3812 32.5964L18.883 31.0159" stroke="#F94144" stroke-width="1.5" stroke-linecap="round" stroke-linejoin="round"/>
<path d="M8.89758 29.5844L9.39936 28.0038" stroke="#F94144" stroke-width="1.5" stroke-linecap="round" stroke-linejoin="round"/>
<path d="M13.6393 31.0911L14.1411 29.5105" stroke="#F94144" stroke-width="1.5" stroke-linecap="round" stroke-linejoin="round"/>
<path d="M21.1053 21.283L23.2748 7.68641C23.2935 7.56934 23.337 7.45763 23.4025 7.35881C23.468 7.26 23.5539 7.17637 23.6545 7.11358C23.7551 7.05078 23.8679 7.01027 23.9854 6.99478C24.103 6.97929 24.2225 6.98918 24.3359 7.02378C27.5826 8.00961 30.2494 8.57485 33.5154 9.57101C33.6201 9.60315 33.7175 9.6557 33.8019 9.72562C33.8862 9.79555 33.956 9.88148 34.007 9.97846C34.058 10.0754 34.0894 10.1816 34.0992 10.2907C34.109 10.3998 34.0972 10.5099 34.0644 10.6144L29.7978 24.0442" stroke="#F94144" stroke-width="1.5" stroke-linecap="round" stroke-linejoin="round"/>
<path d="M22.6298 11.7257L32.7493 14.7541" stroke="#F94144" stroke-width="1.5" stroke-linecap="round" stroke-linejoin="round"/>
<path d="M14.7845 21.2888L16.6293 30.3001" stroke="#F94144" stroke-width="1.5" stroke-linecap="round" stroke-linejoin="round"/>
</svg>
