<svg width="34" height="34" viewBox="0 0 34 34" fill="none" xmlns="http://www.w3.org/2000/svg">
<path d="M0.897461 31.0988L2.11797 32.7027C2.24977 32.8602 2.41452 32.9869 2.60059 33.0738C2.78666 33.1607 2.98952 33.2057 3.19489 33.2057C3.40026 33.2057 3.60312 33.1607 3.78919 33.0738C3.97526 32.9869 4.14001 32.8602 4.27181 32.7027L5.62586 31.0787C5.75766 30.9212 5.92241 30.7945 6.10847 30.7076C6.29454 30.6207 6.49741 30.5757 6.70278 30.5757C6.90814 30.5757 7.11101 30.6207 7.29708 30.7076C7.48315 30.7945 7.64789 30.9212 7.7797 31.0787L9.13662 32.7027C9.26842 32.8602 9.43316 32.9869 9.61923 33.0738C9.8053 33.1607 10.0082 33.2057 10.2135 33.2057C10.4189 33.2057 10.6218 33.1607 10.8078 33.0738C10.9939 32.9869 11.1587 32.8602 11.2905 32.7027L12.6445 31.0787C12.7763 30.9212 12.9411 30.7945 13.1271 30.7076C13.3132 30.6207 13.5161 30.5757 13.7214 30.5757C13.9268 30.5757 14.1297 30.6207 14.3157 30.7076C14.5018 30.7945 14.6665 30.9212 14.7983 31.0787L16.161 32.7027C16.2928 32.8602 16.4576 32.9869 16.6436 33.0738C16.8297 33.1607 17.0326 33.2057 17.2379 33.2057C17.4433 33.2057 17.6462 33.1607 17.8322 33.0738C18.0183 32.9869 18.183 32.8602 18.3148 32.7027L19.6675 31.0787C19.7993 30.9212 19.964 30.7945 20.1501 30.7076C20.3361 30.6207 20.539 30.5757 20.7444 30.5757C20.9497 30.5757 21.1526 30.6207 21.3387 30.7076C21.5248 30.7945 21.6895 30.9212 21.8213 31.0787L23.1753 32.7027C23.3072 32.8602 23.4719 32.9869 23.658 33.0738C23.844 33.1607 24.0469 33.2057 24.2523 33.2057C24.4576 33.2057 24.6605 33.1607 24.8466 33.0738C25.0326 32.9869 25.1974 32.8602 25.3292 32.7027L26.6832 31.0787C26.815 30.9212 26.9798 30.7945 27.1659 30.7076C27.3519 30.6207 27.5548 30.5757 27.7602 30.5757C27.9655 30.5757 28.1684 30.6207 28.3545 30.7076C28.5405 30.7945 28.7053 30.9212 28.8371 31.0787L30.1897 32.7027C30.3215 32.8602 30.4862 32.9869 30.6723 33.0738C30.8584 33.1607 31.0612 33.2057 31.2666 33.2057C31.472 33.2057 31.6748 33.1607 31.8609 33.0738C32.047 32.9869 32.2117 32.8602 32.3435 32.7027L33.1835 31.6976" fill="none" stroke="currentColor" stroke-width="1.5" stroke-linecap="round" stroke-linejoin="round"/>
<path d="M15.6454 27.0611C17.5795 25.5202 19.9636 24.6526 22.4357 24.5899H33.2049" fill="none" stroke="currentColor" stroke-width="1.5" stroke-linecap="round" stroke-linejoin="round"/>
<path d="M31.4647 10.2454C31.6768 10.1712 31.8679 10.0474 32.0223 9.88418C32.1766 9.72098 32.2896 9.52318 32.3517 9.30733C32.4139 9.09149 32.4234 8.8639 32.3795 8.64362C32.3356 8.42334 32.2395 8.21679 32.0994 8.04126C30.284 5.77313 27.8102 4.12344 25.0186 3.31926C22.2269 2.51509 19.2546 2.59597 16.5108 3.55077C13.767 4.50557 11.3866 6.28735 9.69729 8.65086C8.00794 11.0144 7.09269 13.8434 7.07753 16.7485C7.07658 16.9732 7.12952 17.1949 7.23189 17.3949C7.33427 17.5949 7.48311 17.7675 7.66593 17.8982C7.84876 18.0288 8.06024 18.1137 8.28264 18.1458C8.50505 18.1779 8.7319 18.1561 8.94419 18.0825L31.4647 10.2454Z" fill="none" stroke="currentColor" stroke-width="1.5" stroke-linecap="round" stroke-linejoin="round"/>
<path d="M16.5112 3.55124L15.5879 0.897705" fill="none" stroke="currentColor" stroke-width="1.5" stroke-linecap="round" stroke-linejoin="round"/>
<path d="M20.2046 14.1639L23.8331 24.59" fill="none" stroke="currentColor" stroke-width="1.5" stroke-linecap="round" stroke-linejoin="round"/>
</svg>
