<svg width="62" height="62" viewBox="0 0 62 62" fill="none" xmlns="http://www.w3.org/2000/svg">
<g clip-path="url(#clip0_1_1049)">
<path d="M62 0H0V62H62V0Z" fill="white"/>
<path d="M54.6948 2H7.43017C6.98919 1.99993 6.56134 2.15009 6.21713 2.42574C5.87292 2.70139 5.63288 3.08608 5.53658 3.51642L2 19.4375C2 20.9791 2.61239 22.4575 3.70244 23.5476C4.7925 24.6376 6.27093 25.25 7.8125 25.25C9.35407 25.25 10.8325 24.6376 11.9226 23.5476C13.0126 22.4575 13.625 20.9791 13.625 19.4375C13.625 20.9791 14.2374 22.4575 15.3274 23.5476C16.4175 24.6376 17.8959 25.25 19.4375 25.25C20.9791 25.25 22.4575 24.6376 23.5476 23.5476C24.6376 22.4575 25.25 20.9791 25.25 19.4375C25.25 20.9791 25.8624 22.4575 26.9524 23.5476C28.0425 24.6376 29.5209 25.25 31.0625 25.25C32.6041 25.25 34.0825 24.6376 35.1726 23.5476C36.2626 22.4575 36.875 20.9791 36.875 19.4375C36.875 20.9791 37.4874 22.4575 38.5774 23.5476C39.6675 24.6376 41.1459 25.25 42.6875 25.25C44.2291 25.25 45.7075 24.6376 46.7976 23.5476C47.8876 22.4575 48.5 20.9791 48.5 19.4375C48.5 20.9791 49.1124 22.4575 50.2024 23.5476C51.2925 24.6376 52.7709 25.25 54.3125 25.25C55.8541 25.25 57.3325 24.6376 58.4226 23.5476C59.5126 22.4575 60.125 20.9791 60.125 19.4375L56.5858 3.51642C56.4905 3.08607 56.2511 2.70117 55.9072 2.42541C55.5633 2.14965 55.1356 1.99957 54.6948 2Z" stroke="#F94144" stroke-width="1.5" stroke-linecap="round" stroke-linejoin="round"/>
<path d="M56.25 60.125V33" stroke="#F94144" stroke-width="1.5" stroke-linecap="round" stroke-linejoin="round"/>
<path d="M5.875 33V60.125" stroke="#F94144" stroke-width="1.5" stroke-linecap="round" stroke-linejoin="round"/>
<path d="M40.7474 44.625H20.9307C20.3057 44.627 19.6906 44.7801 19.1376 45.0712C18.5846 45.3624 18.1103 45.783 17.755 46.2971C17.3997 46.8112 17.1741 47.4036 17.0973 48.0238C17.0205 48.644 17.0949 49.2736 17.314 49.8588L20.693 58.8669C20.8304 59.2359 21.0772 59.554 21.4003 59.7789C21.7235 60.0037 22.1076 60.1245 22.5013 60.125H39.1897C39.5831 60.1234 39.9667 60.0022 40.2897 59.7775C40.6127 59.5528 40.8597 59.2352 40.998 58.8669L44.3744 49.8588C44.5939 49.2728 44.6681 48.6423 44.5908 48.0213C44.5135 47.4003 44.2869 46.8072 43.9305 46.2928C43.574 45.7785 43.0983 45.3581 42.544 45.0676C41.9896 44.7772 41.3732 44.6253 40.7474 44.625Z" stroke="#F94144" stroke-width="1.5" stroke-linecap="round" stroke-linejoin="round"/>
<path d="M21.1503 44.625L25.0253 34.9375" stroke="#F94144" stroke-width="1.5" stroke-linecap="round" stroke-linejoin="round"/>
<path d="M40.5253 44.625L36.6503 34.9375" stroke="#F94144" stroke-width="1.5" stroke-linecap="round" stroke-linejoin="round"/>
<path d="M27.1875 54.3125V50.4375" stroke="#F94144" stroke-width="1.5" stroke-linecap="round" stroke-linejoin="round"/>
<path d="M34.9375 54.3125V50.4375" stroke="#F94144" stroke-width="1.5" stroke-linecap="round" stroke-linejoin="round"/>
</g>
<defs>
<clipPath id="clip0_1_1049">
<rect width="62" height="62" fill="white"/>
</clipPath>
</defs>
</svg>
