<svg width="62" height="62" viewBox="0 0 62 62" fill="none" xmlns="http://www.w3.org/2000/svg">
<g clip-path="url(#clip0_1_1080)">
<path d="M62 0H0V62H62V0Z" fill="white"/>
<path d="M5.80005 15.3001C5.80005 16.8118 6.40058 18.2616 7.46954 19.3306C8.5385 20.3996 9.98831 21.0001 11.5001 21.0001C13.0118 21.0001 14.4616 20.3996 15.5306 19.3306C16.5996 18.2616 17.2001 16.8118 17.2001 15.3001C17.2001 13.7884 16.5996 12.3385 15.5306 11.2696C14.4616 10.2006 13.0118 9.6001 11.5001 9.6001C9.98831 9.6001 8.5385 10.2006 7.46954 11.2696C6.40058 12.3385 5.80005 13.7884 5.80005 15.3001Z" stroke="#F94144" stroke-width="1.5" stroke-linecap="round" stroke-linejoin="round"/>
<path d="M11.5 24.8C8.98044 24.8 6.56408 25.801 4.78249 27.5826C3.00089 29.3642 2 31.7805 2 34.3V40H5.8L7.7 55.2001H15.3" stroke="#F94144" stroke-width="1.5" stroke-linecap="round" stroke-linejoin="round"/>
<path d="M43.8 15.3001C43.8 16.8118 44.4006 18.2616 45.4696 19.3306C46.5385 20.3996 47.9883 21.0001 49.5 21.0001C51.0117 21.0001 52.4615 20.3996 53.5305 19.3306C54.5995 18.2616 55.2001 16.8118 55.2001 15.3001C55.2001 13.7884 54.5995 12.3385 53.5305 11.2696C52.4615 10.2006 51.0117 9.6001 49.5 9.6001C47.9883 9.6001 46.5385 10.2006 45.4696 11.2696C44.4006 12.3385 43.8 13.7884 43.8 15.3001Z" stroke="#F94144" stroke-width="1.5" stroke-linecap="round" stroke-linejoin="round"/>
<path d="M49.5 24.8C52.0196 24.8 54.4358 25.801 56.2174 27.5826C57.999 29.3642 59 31.7805 59 34.3V40H55.2L53.2999 55.2001H45.7" stroke="#F94144" stroke-width="1.5" stroke-linecap="round" stroke-linejoin="round"/>
<path d="M22.9 9.6C22.9 11.6156 23.7007 13.5487 25.126 14.974C26.5513 16.3993 28.4844 17.2 30.5 17.2C32.5157 17.2 34.4488 16.3993 35.874 14.974C37.2993 13.5487 38.1 11.6156 38.1 9.6C38.1 7.58435 37.2993 5.65126 35.874 4.22599C34.4488 2.80071 32.5157 2 30.5 2C28.4844 2 26.5513 2.80071 25.126 4.22599C23.7007 5.65126 22.9 7.58435 22.9 9.6Z" stroke="#F94144" stroke-width="1.5" stroke-linecap="round" stroke-linejoin="round"/>
<path d="M43.7999 34.3C43.7999 30.7726 42.3987 27.3897 39.9044 24.8955C37.4102 22.4012 34.0274 21 30.5 21C26.9726 21 23.5897 22.4012 21.0955 24.8955C18.6013 27.3897 17.2 30.7726 17.2 34.3V40H22.9L24.7999 59H36.2L38.0999 40H43.7999V34.3Z" stroke="#F94144" stroke-width="1.5" stroke-linecap="round" stroke-linejoin="round"/>
</g>
<defs>
<clipPath id="clip0_1_1080">
<rect width="62" height="62" fill="white"/>
</clipPath>
</defs>
</svg>
