<svg width="62" height="62" viewBox="0 0 62 62" fill="none" xmlns="http://www.w3.org/2000/svg">
<path d="M14.981 60.1836H11.0195C9.8511 60.1836 8.90039 59.2329 8.90039 58.0645V3.93555C8.90039 2.76711 9.8511 1.81641 11.0195 1.81641H26.7547C27.2563 1.81641 27.6629 1.40977 27.6629 0.908203C27.6629 0.406633 27.2563 0 26.7547 0H11.0195C8.84953 0 7.08398 1.76555 7.08398 3.93555V58.0645C7.08398 60.2345 8.84953 62 11.0195 62H14.981C15.4826 62 15.8892 61.5934 15.8892 61.0918C15.8892 60.5902 15.4826 60.1836 14.981 60.1836Z" fill="#F94144"/>
<path d="M54.65 12.7992L42.1168 0.266043C41.9984 0.147492 41.833 0.0535234 41.6518 0.0175586C41.6447 0.0104141 41.4863 0 41.4746 0H30.993C30.4914 0 30.0848 0.406633 30.0848 0.908203C30.0848 1.40977 30.4914 1.81641 30.993 1.81641H40.5664V10.4141C40.5664 12.5841 42.332 14.3496 44.502 14.3496H53.0996V58.0645C53.0996 59.2329 52.1489 60.1836 50.9805 60.1836H19.2193C18.7177 60.1836 18.3111 60.5902 18.3111 61.0918C18.3111 61.5934 18.7177 62 19.2193 62H50.9805C53.1505 62 54.916 60.2345 54.916 58.0645V13.4414C54.916 13.2123 54.8238 12.9729 54.65 12.7992ZM44.502 12.5332C43.3335 12.5332 42.3828 11.5825 42.3828 10.4141V3.10073L51.8153 12.5332H44.502Z" fill="#F94144"/>
<path d="M46.7422 19.9539H15.2578C14.7562 19.9539 14.3496 20.3605 14.3496 20.8621C14.3496 21.3636 14.7562 21.7703 15.2578 21.7703H46.7422C47.2438 21.7703 47.6504 21.3636 47.6504 20.8621C47.6504 20.3605 47.2438 19.9539 46.7422 19.9539Z" fill="#F94144"/>
<path d="M46.7422 28.0269H15.2578C14.7562 28.0269 14.3496 28.4335 14.3496 28.9351C14.3496 29.4366 14.7562 29.8433 15.2578 29.8433H46.7422C47.2438 29.8433 47.6504 29.4366 47.6504 28.9351C47.6504 28.4335 47.2438 28.0269 46.7422 28.0269Z" fill="#F94144"/>
<path d="M46.7422 36.0999H15.2578C14.7562 36.0999 14.3496 36.5065 14.3496 37.0081C14.3496 37.5096 14.7562 37.9163 15.2578 37.9163H46.7422C47.2438 37.9163 47.6504 37.5096 47.6504 37.0081C47.6504 36.5065 47.2438 36.0999 46.7422 36.0999Z" fill="#F94144"/>
<path d="M46.7422 44.1726H15.2578C14.7562 44.1726 14.3496 44.5792 14.3496 45.0808C14.3496 45.5824 14.7562 45.989 15.2578 45.989H46.7422C47.2438 45.989 47.6504 45.5824 47.6504 45.0808C47.6504 44.5792 47.2438 44.1726 46.7422 44.1726Z" fill="#F94144"/>
</svg>
