<svg width="35" height="19" viewBox="0 0 35 19" fill="none" xmlns="http://www.w3.org/2000/svg">
<path d="M23.0334 15.8942C23.0334 16.4595 23.2667 17.0016 23.6818 17.4014C24.097 17.8011 24.66 18.0256 25.2471 18.0256C25.8342 18.0256 26.3973 17.8011 26.8124 17.4014C27.2276 17.0016 27.4608 16.4595 27.4608 15.8942C27.4608 15.3289 27.2276 14.7868 26.8124 14.3871C26.3973 13.9874 25.8342 13.7628 25.2471 13.7628C24.66 13.7628 24.097 13.9874 23.6818 14.3871C23.2667 14.7868 23.0334 15.3289 23.0334 15.8942V15.8942Z" fill="none" stroke="currentColor" stroke-width="1.5" stroke-linecap="round" stroke-linejoin="round"/>
<path d="M5.3241 15.8942C5.3241 16.4595 5.55732 17.0016 5.97247 17.4014C6.38761 17.8011 6.95067 18.0256 7.53777 18.0256C8.12488 18.0256 8.68793 17.8011 9.10308 17.4014C9.51822 17.0016 9.75145 16.4595 9.75145 15.8942C9.75145 15.3289 9.51822 14.7868 9.10308 14.3871C8.68793 13.9874 8.12488 13.7628 7.53777 13.7628C6.95067 13.7628 6.38761 13.9874 5.97247 14.3871C5.55732 14.7868 5.3241 15.3289 5.3241 15.8942Z" fill="none" stroke="currentColor" stroke-width="1.5" stroke-linecap="round" stroke-linejoin="round"/>
<path d="M23.0349 15.8942H9.75281" fill="none" stroke="currentColor" stroke-width="1.5" stroke-linecap="round" stroke-linejoin="round"/>
<path d="M5.32481 15.8942H3.11114C2.52403 15.8942 1.96098 15.6697 1.54583 15.27C1.13069 14.8702 0.897461 14.3281 0.897461 13.7628V11.6314C0.897461 10.5008 1.36391 9.41658 2.1942 8.61715C3.02449 7.81771 4.15061 7.3686 5.32481 7.3686L8.03287 2.15232C8.2168 1.79826 8.49952 1.50051 8.84932 1.29245C9.19913 1.08439 9.60221 0.974247 10.0134 0.974365H21.6721C22.0832 0.974247 22.4863 1.08439 22.8361 1.29245C23.1859 1.50051 23.4686 1.79826 23.6526 2.15232L26.3547 7.3686H29.6752C30.8494 7.3686 31.9756 7.81771 32.8059 8.61715C33.6361 9.41658 34.1026 10.5008 34.1026 11.6314V13.7628C34.1026 14.3281 33.8694 14.8702 33.4542 15.27C33.0391 15.6697 32.476 15.8942 31.8889 15.8942H27.4616" fill="none" stroke="currentColor" stroke-width="1.5" stroke-linecap="round" stroke-linejoin="round"/>
<path d="M26.354 7.36859H5.3241" fill="none" stroke="currentColor" stroke-width="1.5" stroke-linecap="round" stroke-linejoin="round"/>
</svg>
